<svg width="32" height="32" viewBox="0 0 32 32" fill="none" xmlns="http://www.w3.org/2000/svg">
<path d="M4 22.6667H22.6667V20H4V22.6667Z" fill="#FFFDF9"/>
<path d="M6.66797 25.3334H9.33464V22.6667H6.66797V25.3334Z" fill="#FFFDF9"/>
<path d="M6.66797 19.9999H9.33464V17.3333H6.66797V19.9999Z" fill="#FFFDF9"/>
<path d="M9.33203 27.9999H11.9987V25.3333H9.33203V27.9999Z" fill="#FFFDF9"/>
<path d="M22.668 19.9999H25.3346V17.3333H22.668V19.9999Z" fill="#FFFDF9"/>
<path d="M22.668 11.9999H25.3346V9.33325H22.668V11.9999Z" fill="#FFFDF9"/>
<path d="M25.332 17.3334H27.9987V14.6667H25.332V17.3334Z" fill="#FFFDF9"/>
<path d="M25.332 14.6667H27.9987V12H25.332V14.6667Z" fill="#FFFDF9"/>
<path d="M4 9.33341H22.6667V6.66675H4V9.33341Z" fill="#FFFDF9"/>
<path d="M9.33203 17.3334H11.9987V14.6667H9.33203V17.3334Z" fill="#FFFDF9"/>
</svg>
